<?xml version="1.0" encoding="UTF-8" standalone="no"?>
<svg xmlns="http://www.w3.org/2000/svg" width="800" height="600" viewBox="0 0 800 600">
  <defs>
    <marker id="arrow" viewBox="0 0 10 10" refX="6" refY="5" markerWidth="6" markerHeight="6" orient="auto-start-reverse">
      <path d="M 0 1.5 L 8 5 L 0 8.5 z" fill="#8e8e93" />
    </marker>
  </defs>
  <rect width="100%" height="100%" fill="#fafafa" rx="16" stroke="#e5e5ea" stroke-width="1.5" />
  <style>
    .edge-line { stroke: #aeaeb2; stroke-width: 1.5; fill: none; marker-end: url(#arrow); }
    .node-rect { stroke-width: 1.5; filter: drop-shadow(0px 2px 4px rgba(0,0,0,0.03)); }
    .node-text { font-family: -apple-system, BlinkMacSystemFont, "Segoe UI", Roboto, "Helvetica Neue", Arial, sans-serif; font-size: 10px; font-weight: 600; text-anchor: middle; dominant-baseline: middle; }
    .graph-title { font-family: -apple-system, BlinkMacSystemFont, "Segoe UI", Roboto, "Helvetica Neue", Arial, sans-serif; font-size: 14px; font-weight: 700; fill: #1d1d1f; }
  </style>
  <text x="30" y="35" class="graph-title">Module Dependency Graph</text>
  <line x1="526.8" y1="411.5" x2="475.1" y2="336.6" class="edge-line" />
  <line x1="584.0" y1="435.5" x2="633.9" y2="447.7" class="edge-line" />
  <line x1="523.3" y1="411.5" x2="455.9" y2="343.3" class="edge-line" />
  <line x1="545.4" y1="435.5" x2="604.7" y2="504.9" class="edge-line" />
  <line x1="526.5" y1="411.5" x2="448.5" y2="303.4" class="edge-line" />
  <line x1="548.8" y1="435.5" x2="681.0" y2="551.4" class="edge-line" />
  <line x1="543.9" y1="435.5" x2="628.1" y2="550.4" class="edge-line" />
  <line x1="522.3" y1="411.5" x2="479.2" y2="371.4" class="edge-line" />
  <line x1="522.2" y1="411.5" x2="430.7" y2="326.2" class="edge-line" />
  <line x1="517.2" y1="411.5" x2="456.8" y2="371.1" class="edge-line" />
  <line x1="391.1" y1="443.6" x2="434.6" y2="549.5" class="edge-line" />
  <line x1="394.4" y1="419.6" x2="450.8" y2="336.7" class="edge-line" />
  <line x1="392.2" y1="419.6" x2="429.9" y2="344.6" class="edge-line" />
  <line x1="390.3" y1="419.6" x2="429.4" y2="304.3" class="edge-line" />
  <line x1="376.2" y1="419.6" x2="334.5" y2="369.8" class="edge-line" />
  <line x1="386.2" y1="419.6" x2="385.5" y2="281.7" class="edge-line" />
  <line x1="381.7" y1="443.6" x2="341.6" y2="549.5" class="edge-line" />
  <line x1="397.9" y1="419.6" x2="444.6" y2="371.6" class="edge-line" />
  <line x1="388.8" y1="419.6" x2="408.6" y2="328.3" class="edge-line" />
  <line x1="393.6" y1="419.6" x2="422.0" y2="373.2" class="edge-line" />
  <line x1="376.1" y1="443.6" x2="286.1" y2="550.6" class="edge-line" />
  <line x1="197.6" y1="519.1" x2="125.0" y2="553.0" class="edge-line" />
  <line x1="230.8" y1="495.1" x2="308.8" y2="370.3" class="edge-line" />
  <line x1="215.9" y1="495.1" x2="166.4" y2="413.7" class="edge-line" />
  <line x1="245.2" y1="519.1" x2="306.5" y2="552.6" class="edge-line" />
  <line x1="232.8" y1="519.1" x2="257.7" y2="550.5" class="edge-line" />
  <line x1="398.0" y1="382.6" x2="445.7" y2="335.8" class="edge-line" />
  <line x1="395.2" y1="382.6" x2="425.4" y2="343.9" class="edge-line" />
  <line x1="391.3" y1="382.6" x2="427.3" y2="304.1" class="edge-line" />
  <line x1="385.8" y1="382.6" x2="385.5" y2="281.7" class="edge-line" />
  <line x1="380.2" y1="406.6" x2="313.6" y2="549.7" class="edge-line" />
  <line x1="408.4" y1="382.6" x2="432.4" y2="369.9" class="edge-line" />
  <line x1="400.2" y1="382.6" x2="413.2" y2="371.7" class="edge-line" />
  <line x1="389.6" y1="382.6" x2="406.8" y2="328.2" class="edge-line" />
  <line x1="223.0" y1="224.1" x2="156.9" y2="197.2" class="edge-line" />
  <line x1="232.5" y1="248.1" x2="115.4" y2="318.8" class="edge-line" />
  <line x1="245.1" y1="248.1" x2="166.3" y2="377.7" class="edge-line" />
  <line x1="273.5" y1="248.1" x2="433.9" y2="339.1" class="edge-line" />
  <line x1="214.9" y1="248.1" x2="151.2" y2="268.5" class="edge-line" />
  <line x1="234.5" y1="224.1" x2="102.8" y2="136.0" class="edge-line" />
  <line x1="282.9" y1="248.1" x2="425.8" y2="304.3" class="edge-line" />
  <line x1="296.8" y1="248.1" x2="384.6" y2="271.9" class="edge-line" />
  <line x1="191.9" y1="235.2" x2="185.0" y2="235.1" class="edge-line" />
  <line x1="277.2" y1="248.1" x2="407.9" y2="311.3" class="edge-line" />
  <line x1="259.4" y1="248.1" x2="309.5" y2="334.3" class="edge-line" />
  <line x1="270.6" y1="248.1" x2="408.9" y2="339.4" class="edge-line" />
  <line x1="312.5" y1="248.1" x2="318.5" y2="249.3" class="edge-line" />
  <line x1="249.0" y1="224.1" x2="200.3" y2="50.7" class="edge-line" />
  <line x1="243.4" y1="224.1" x2="135.8" y2="81.1" class="edge-line" />
  <line x1="243.9" y1="224.1" x2="205.6" y2="169.7" class="edge-line" />
  <line x1="253.8" y1="224.1" x2="273.9" y2="54.7" class="edge-line" />
  <line x1="250.8" y1="224.1" x2="235.8" y2="108.4" class="edge-line" />
  <line x1="278.6" y1="248.1" x2="380.1" y2="294.6" class="edge-line" />
  <line x1="237.7" y1="38.8" x2="396.1" y2="26.2" class="edge-line" />
  <line x1="461.2" y1="232.5" x2="462.5" y2="299.9" class="edge-line" />
  <line x1="462.3" y1="208.5" x2="480.5" y2="51.0" class="edge-line" />
  <line x1="458.4" y1="232.5" x2="443.0" y2="307.5" class="edge-line" />
  <line x1="456.3" y1="232.5" x2="442.9" y2="267.2" class="edge-line" />
  <line x1="439.5" y1="232.5" x2="413.0" y2="247.3" class="edge-line" />
  <line x1="460.9" y1="232.5" x2="461.1" y2="335.6" class="edge-line" />
  <line x1="458.4" y1="232.5" x2="436.9" y2="336.4" class="edge-line" />
  <line x1="454.4" y1="232.5" x2="422.5" y2="291.3" class="edge-line" />
  <line x1="491.0" y1="411.8" x2="450.3" y2="372.1" class="edge-line" />
  <line x1="495.4" y1="411.8" x2="450.8" y2="344.2" class="edge-line" />
  <line x1="498.7" y1="411.8" x2="470.0" y2="337.4" class="edge-line" />
  <line x1="496.0" y1="411.8" x2="472.1" y2="372.6" class="edge-line" />
  <line x1="563.4" y1="220.9" x2="631.5" y2="103.2" class="edge-line" />
  <line x1="543.4" y1="244.9" x2="481.1" y2="302.1" class="edge-line" />
  <line x1="558.5" y1="220.9" x2="586.4" y2="55.0" class="edge-line" />
  <line x1="559.9" y1="220.9" x2="589.7" y2="115.6" class="edge-line" />
  <line x1="541.4" y1="244.9" x2="459.6" y2="310.0" class="edge-line" />
  <line x1="617.0" y1="223.0" x2="563.6" y2="231.7" class="edge-line" />
  <line x1="575.9" y1="220.9" x2="650.1" y2="174.9" class="edge-line" />
  <line x1="532.7" y1="244.9" x2="350.0" y2="337.2" class="edge-line" />
  <line x1="529.0" y1="244.9" x2="469.6" y2="270.9" class="edge-line" />
  <line x1="496.0" y1="243.4" x2="461.1" y2="249.5" class="edge-line" />
  <line x1="547.1" y1="244.9" x2="474.9" y2="337.1" class="edge-line" />
  <line x1="544.4" y1="244.9" x2="450.1" y2="338.3" class="edge-line" />
  <line x1="533.9" y1="244.9" x2="441.4" y2="294.2" class="edge-line" />
  <line x1="580.0" y1="244.9" x2="624.7" y2="267.6" class="edge-line" />
  <!-- Node 0: DiscountRulesCustomerRolesController -->
  <rect x="401.1" y="411.5" width="268" height="24" rx="6" fill="#0071e3" stroke="#005bb5" class="node-rect" />
  <text x="535.1" y="424.5" fill="#ffffff" class="node-text">DiscountRulesCustomerRolesController</text>
  <!-- Node 1: Nop.Web.Framework.Controllers -->
  <rect x="353.3" y="306.9" width="219" height="24" rx="6" fill="#0071e3" stroke="#005bb5" class="node-rect" />
  <text x="462.8" y="319.9" fill="#ffffff" class="node-text">Nop.Web.Framework.Controllers</text>
  <!-- Node 2: Nop.Core.Domain.Discounts -->
  <rect x="594.0" y="449.4" width="191" height="24" rx="6" fill="#af52de" stroke="#7a22b8" class="node-rect" />
  <text x="689.5" y="462.4" fill="#ffffff" class="node-text">Nop.Core.Domain.Discounts</text>
  <!-- Node 3: Nop.Web.Framework.Mvc.Filters -->
  <rect x="329.6" y="314.4" width="219" height="24" rx="6" fill="#ffffff" stroke="#d1d1d6" class="node-rect" />
  <text x="439.1" y="327.4" fill="#1d1d1f" class="node-text">Nop.Web.Framework.Mvc.Filters</text>
  <!-- Node 4: Nop.Plugin.DiscountRules.CustomerRoles.Models -->
  <rect x="454.0" y="510.2" width="331" height="24" rx="6" fill="#af52de" stroke="#7a22b8" class="node-rect" />
  <text x="619.5" y="523.2" fill="#ffffff" class="node-text">Nop.Plugin.DiscountRules.CustomerRoles.Models</text>
  <!-- Node 5: Nop.Services.Localization -->
  <rect x="340.2" y="273.7" width="191" height="24" rx="6" fill="#30d158" stroke="#1a8c3a" class="node-rect" />
  <text x="435.7" y="286.7" fill="#ffffff" class="node-text">Nop.Services.Localization</text>
  <!-- Node 6: Nop.Services.Customers -->
  <rect x="615.0" y="556.0" width="170" height="24" rx="6" fill="#30d158" stroke="#1a8c3a" class="node-rect" />
  <text x="700.0" y="569.0" fill="#ffffff" class="node-text">Nop.Services.Customers</text>
  <!-- Node 7: Nop.Services.Discounts -->
  <rect x="556.1" y="556.0" width="170" height="24" rx="6" fill="#30d158" stroke="#1a8c3a" class="node-rect" />
  <text x="641.1" y="569.0" fill="#ffffff" class="node-text">Nop.Services.Discounts</text>
  <!-- Node 8: Nop.Services.Security -->
  <rect x="379.7" y="342.6" width="163" height="24" rx="6" fill="#30d158" stroke="#1a8c3a" class="node-rect" />
  <text x="461.2" y="355.6" fill="#ffffff" class="node-text">Nop.Services.Security</text>
  <!-- Node 9: Nop.Services.Configuration -->
  <rect x="313.7" y="297.5" width="198" height="24" rx="6" fill="#30d158" stroke="#1a8c3a" class="node-rect" />
  <text x="412.7" y="310.5" fill="#ffffff" class="node-text">Nop.Services.Configuration</text>
  <!-- Node 10: Nop.Web.Framework -->
  <rect x="365.5" y="343.2" width="135" height="24" rx="6" fill="#ffffff" stroke="#d1d1d6" class="node-rect" />
  <text x="433.0" y="356.2" fill="#1d1d1f" class="node-text">Nop.Web.Framework</text>
  <!-- Node 11: FacebookAuthenticationController -->
  <rect x="266.2" y="419.6" width="240" height="24" rx="6" fill="#0071e3" stroke="#005bb5" class="node-rect" />
  <text x="386.2" y="432.6" fill="#ffffff" class="node-text">FacebookAuthenticationController</text>
  <!-- Node 12: Nop.Core.Http -->
  <rect x="388.7" y="556.0" width="107" height="24" rx="6" fill="#ffffff" stroke="#d1d1d6" class="node-rect" />
  <text x="442.2" y="569.0" fill="#1d1d1f" class="node-text">Nop.Core.Http</text>
  <!-- Node 13: Nop.Core -->
  <rect x="284.0" y="340.4" width="72" height="24" rx="6" fill="#ffffff" stroke="#d1d1d6" class="node-rect" />
  <text x="320.0" y="353.4" fill="#1d1d1f" class="node-text">Nop.Core</text>
  <!-- Node 14: Nop.Services.Messages -->
  <rect x="303.9" y="250.7" width="163" height="24" rx="6" fill="#30d158" stroke="#1a8c3a" class="node-rect" />
  <text x="385.4" y="263.7" fill="#ffffff" class="node-text">Nop.Services.Messages</text>
  <!-- Node 15: Nop.Plugin.ExternalAuth.Facebook.Models -->
  <rect x="190.1" y="556.0" width="289" height="24" rx="6" fill="#af52de" stroke="#7a22b8" class="node-rect" />
  <text x="334.6" y="569.0" fill="#ffffff" class="node-text">Nop.Plugin.ExternalAuth.Facebook.Models</text>
  <!-- Node 16: Nop.Services.Authentication.External -->
  <rect x="137.5" y="556.0" width="268" height="24" rx="6" fill="#30d158" stroke="#1a8c3a" class="node-rect" />
  <text x="271.5" y="569.0" fill="#ffffff" class="node-text">Nop.Services.Authentication.External</text>
  <!-- Node 17: FacebookDataDeletionController -->
  <rect x="110.2" y="495.1" width="226" height="24" rx="6" fill="#0071e3" stroke="#005bb5" class="node-rect" />
  <text x="223.2" y="508.1" fill="#ffffff" class="node-text">FacebookDataDeletionController</text>
  <!-- Node 18: Nop.Services.Helpers -->
  <rect x="15.0" y="556.0" width="156" height="24" rx="6" fill="#30d158" stroke="#1a8c3a" class="node-rect" />
  <text x="93.0" y="569.0" fill="#ffffff" class="node-text">Nop.Services.Helpers</text>
  <!-- Node 19: Nop.Services.Logging -->
  <rect x="77.4" y="383.7" width="156" height="24" rx="6" fill="#30d158" stroke="#1a8c3a" class="node-rect" />
  <text x="155.4" y="396.7" fill="#ffffff" class="node-text">Nop.Services.Logging</text>
  <!-- Node 20: AzureBlobController -->
  <rect x="311.3" y="382.6" width="149" height="24" rx="6" fill="#0071e3" stroke="#005bb5" class="node-rect" />
  <text x="385.8" y="395.6" fill="#ffffff" class="node-text">AzureBlobController</text>
  <!-- Node 21: Nop.Plugin.Misc.AzureBlob.Models -->
  <rect x="185.0" y="556.0" width="240" height="24" rx="6" fill="#af52de" stroke="#7a22b8" class="node-rect" />
  <text x="305.0" y="569.0" fill="#ffffff" class="node-text">Nop.Plugin.Misc.AzureBlob.Models</text>
  <!-- Node 22: BrevoController -->
  <rect x="191.9" y="224.1" width="121" height="24" rx="6" fill="#0071e3" stroke="#005bb5" class="node-rect" />
  <text x="252.4" y="237.1" fill="#ffffff" class="node-text">BrevoController</text>
  <!-- Node 23: Nop.Plugin.Misc.Brevo.Models -->
  <rect x="15.0" y="170.5" width="212" height="24" rx="6" fill="#af52de" stroke="#7a22b8" class="node-rect" />
  <text x="121.0" y="183.5" fill="#ffffff" class="node-text">Nop.Plugin.Misc.Brevo.Models</text>
  <!-- Node 24: Nop.Services.Stores -->
  <rect x="15.0" y="322.4" width="149" height="24" rx="6" fill="#30d158" stroke="#1a8c3a" class="node-rect" />
  <text x="89.5" y="335.4" fill="#ffffff" class="node-text">Nop.Services.Stores</text>
  <!-- Node 25: Nop.Core.Domain.Messages -->
  <rect x="15.0" y="270.6" width="184" height="24" rx="6" fill="#af52de" stroke="#7a22b8" class="node-rect" />
  <text x="107.0" y="283.6" fill="#ffffff" class="node-text">Nop.Core.Domain.Messages</text>
  <!-- Node 26: Nop.Core.Caching -->
  <rect x="15.0" y="108.2" width="128" height="24" rx="6" fill="#ffffff" stroke="#d1d1d6" class="node-rect" />
  <text x="79.0" y="121.2" fill="#1d1d1f" class="node-text">Nop.Core.Caching</text>
  <!-- Node 27: Nop.Web.Framework.Mvc -->
  <rect x="15.0" y="221.8" width="163" height="24" rx="6" fill="#ffffff" stroke="#d1d1d6" class="node-rect" />
  <text x="96.5" y="234.8" fill="#1d1d1f" class="node-text">Nop.Web.Framework.Mvc</text>
  <!-- Node 28: Nop.Web.Framework.Models -->
  <rect x="103.0" y="20.0" width="184" height="24" rx="6" fill="#af52de" stroke="#7a22b8" class="node-rect" />
  <text x="195.0" y="33.0" fill="#ffffff" class="node-text">Nop.Web.Framework.Models</text>
  <!-- Node 29: Nop.Services.Common -->
  <rect x="48.0" y="51.6" width="149" height="24" rx="6" fill="#30d158" stroke="#1a8c3a" class="node-rect" />
  <text x="122.5" y="64.6" fill="#ffffff" class="node-text">Nop.Services.Common</text>
  <!-- Node 30: Nop.Web.Framework.Models.Extensions -->
  <rect x="62.6" y="140.0" width="261" height="24" rx="6" fill="#af52de" stroke="#7a22b8" class="node-rect" />
  <text x="193.1" y="153.0" fill="#ffffff" class="node-text">Nop.Web.Framework.Models.Extensions</text>
  <!-- Node 31: Nop.Plugin.Misc.Brevo.Services -->
  <rect x="163.1" y="23.7" width="226" height="24" rx="6" fill="#30d158" stroke="#1a8c3a" class="node-rect" />
  <text x="276.1" y="36.7" fill="#ffffff" class="node-text">Nop.Plugin.Misc.Brevo.Services</text>
  <!-- Node 32: Nop.Web.Framework.Mvc.ModelBinding -->
  <rect x="106.3" y="77.4" width="254" height="24" rx="6" fill="#af52de" stroke="#7a22b8" class="node-rect" />
  <text x="233.3" y="90.4" fill="#ffffff" class="node-text">Nop.Web.Framework.Mvc.ModelBinding</text>
  <!-- Node 33: BrevoWebhookController -->
  <rect x="237.7" y="20.0" width="170" height="24" rx="6" fill="#0071e3" stroke="#005bb5" class="node-rect" />
  <text x="322.7" y="33.0" fill="#ffffff" class="node-text">BrevoWebhookController</text>
  <!-- Node 34: CloudflareImagesController -->
  <rect x="361.9" y="208.5" width="198" height="24" rx="6" fill="#0071e3" stroke="#005bb5" class="node-rect" />
  <text x="460.9" y="221.5" fill="#ffffff" class="node-text">CloudflareImagesController</text>
  <!-- Node 35: Nop.Plugin.Misc.CloudflareImages.Models -->
  <rect x="338.2" y="20.0" width="289" height="24" rx="6" fill="#af52de" stroke="#7a22b8" class="node-rect" />
  <text x="482.7" y="33.0" fill="#ffffff" class="node-text">Nop.Plugin.Misc.CloudflareImages.Models</text>
  <!-- Node 36: Dynamics365Controller -->
  <rect x="421.8" y="411.8" width="163" height="24" rx="6" fill="#0071e3" stroke="#005bb5" class="node-rect" />
  <text x="503.3" y="424.8" fill="#ffffff" class="node-text">Dynamics365Controller</text>
  <!-- Node 37: ForumController -->
  <rect x="496.0" y="220.9" width="121" height="24" rx="6" fill="#0071e3" stroke="#005bb5" class="node-rect" />
  <text x="556.5" y="233.9" fill="#ffffff" class="node-text">ForumController</text>
  <!-- Node 38: Nop.Core.Domain.Security -->
  <rect x="549.9" y="73.1" width="184" height="24" rx="6" fill="#af52de" stroke="#7a22b8" class="node-rect" />
  <text x="641.9" y="86.1" fill="#ffffff" class="node-text">Nop.Core.Domain.Security</text>
  <!-- Node 39: Nop.Plugin.Misc.Forums.Services -->
  <rect x="473.0" y="24.1" width="233" height="24" rx="6" fill="#30d158" stroke="#1a8c3a" class="node-rect" />
  <text x="589.5" y="37.1" fill="#ffffff" class="node-text">Nop.Plugin.Misc.Forums.Services</text>
  <!-- Node 40: Nop.Web.Areas.Admin.Infrastructure.Mapper.Extensions -->
  <rect x="405.0" y="84.9" width="380" height="24" rx="6" fill="#ffffff" stroke="#d1d1d6" class="node-rect" />
  <text x="595.0" y="97.9" fill="#1d1d1f" class="node-text">Nop.Web.Areas.Admin.Infrastructure.Mapper.Extensions</text>
  <!-- Node 41: Nop.Plugin.Misc.Forums.Admin.Factories -->
  <rect x="503.0" y="206.6" width="282" height="24" rx="6" fill="#ffffff" stroke="#d1d1d6" class="node-rect" />
  <text x="644.0" y="219.6" fill="#1d1d1f" class="node-text">Nop.Plugin.Misc.Forums.Admin.Factories</text>
  <!-- Node 42: Nop.Plugin.Misc.Forums.Domain -->
  <rect x="566.0" y="147.2" width="219" height="24" rx="6" fill="#af52de" stroke="#7a22b8" class="node-rect" />
  <text x="675.5" y="160.2" fill="#ffffff" class="node-text">Nop.Plugin.Misc.Forums.Domain</text>
  <!-- Node 43: Nop.Plugin.Misc.Forums.Admin.Models -->
  <rect x="524.0" y="270.8" width="261" height="24" rx="6" fill="#af52de" stroke="#7a22b8" class="node-rect" />
  <text x="654.5" y="283.8" fill="#ffffff" class="node-text">Nop.Plugin.Misc.Forums.Admin.Models</text>
</svg>