<?xml version="1.0" encoding="UTF-8" standalone="no"?>
<svg xmlns="http://www.w3.org/2000/svg" width="700" height="700" viewBox="0 0 700 700">
  <style>
    .layer-bg { fill: #f5f5f7; stroke: #e5e5ea; stroke-width: 1.5; }
    .node-pill { fill: #ffffff; stroke: #d1d1d6; stroke-width: 1.5; filter: drop-shadow(0px 2px 4px rgba(0,0,0,0.03)); }
    .node-text { font-family: -apple-system, BlinkMacSystemFont, "Segoe UI", Roboto, "Helvetica Neue", Arial, sans-serif; font-size: 11px; fill: #1d1d1f; font-weight: 600; text-anchor: middle; dominant-baseline: middle; }
    .layer-title { font-family: -apple-system, BlinkMacSystemFont, "Segoe UI", Roboto, "Helvetica Neue", Arial, sans-serif; font-size: 11px; font-weight: 700; text-transform: uppercase; letter-spacing: 0.5px; }
    .connector-line { stroke: #aeaeb2; stroke-width: 2; stroke-dasharray: 4 3; }
    .connector-arrow { fill: #aeaeb2; }
    .connector-text { font-family: -apple-system, BlinkMacSystemFont, "Segoe UI", Roboto, "Helvetica Neue", Arial, sans-serif; font-size: 9px; fill: #8e8e93; font-weight: 600; text-anchor: start; }
  </style>
  <!-- Layer 0: USER / CLIENT -->
  <rect x="25" y="20" width="650" height="100" rx="12" class="layer-bg" />
  <path d="M 25 26 L 25 114" stroke="#6e6e73" stroke-width="5" stroke-linecap="round" />
  <text x="40" y="44" fill="#6e6e73" class="layer-title">USER / CLIENT</text>
  <rect x="293" y="62" width="114" height="32" rx="8" class="node-pill" />
  <circle cx="305" cy="78" r="3.5" fill="#6e6e73" />
  <text x="356" y="79" class="node-text">Client</text>
  <!-- Connector Layer 0 -> 1 -->
  <line x1="350" y1="120" x2="350" y2="154" class="connector-line" />
  <polygon points="346,154 354,154 350,160" class="connector-arrow" />
  <text x="365" y="143" class="connector-text">HTTP</text>
  <!-- Layer 1: API / PRESENTATION LAYER -->
  <rect x="25" y="160" width="650" height="100" rx="12" class="layer-bg" />
  <path d="M 25 166 L 25 254" stroke="#0071e3" stroke-width="5" stroke-linecap="round" />
  <text x="40" y="184" fill="#0071e3" class="layer-title">API / PRESENTATION LAYER</text>
  <rect x="33" y="202" width="114" height="32" rx="8" class="node-pill" />
  <circle cx="45" cy="218" r="3.5" fill="#0071e3" />
  <text x="96" y="219" class="node-text">DiscountRulesCustomerRolesController</text>
  <rect x="163" y="202" width="114" height="32" rx="8" class="node-pill" />
  <circle cx="175" cy="218" r="3.5" fill="#0071e3" />
  <text x="226" y="219" class="node-text">FacebookAuthenticationController</text>
  <rect x="293" y="202" width="114" height="32" rx="8" class="node-pill" />
  <circle cx="305" cy="218" r="3.5" fill="#0071e3" />
  <text x="356" y="219" class="node-text">FacebookDataDeletionController</text>
  <rect x="423" y="202" width="114" height="32" rx="8" class="node-pill" />
  <circle cx="435" cy="218" r="3.5" fill="#0071e3" />
  <text x="486" y="219" class="node-text">AzureBlobController</text>
  <rect x="553" y="202" width="114" height="32" rx="8" class="node-pill" />
  <circle cx="565" cy="218" r="3.5" fill="#0071e3" />
  <text x="616" y="219" class="node-text">BrevoController</text>
  <!-- Connector Layer 1 -> 2 -->
  <line x1="350" y1="260" x2="350" y2="294" class="connector-line" />
  <polygon points="346,294 354,294 350,300" class="connector-arrow" />
  <text x="365" y="283" class="connector-text">calls</text>
  <!-- Layer 2: BUSINESS LOGIC / SERVICE LAYER -->
  <rect x="25" y="300" width="650" height="100" rx="12" class="layer-bg" />
  <path d="M 25 306 L 25 394" stroke="#30d158" stroke-width="5" stroke-linecap="round" />
  <text x="40" y="324" fill="#30d158" class="layer-title">BUSINESS LOGIC / SERVICE LAYER</text>
  <rect x="33" y="342" width="114" height="32" rx="8" class="node-pill" />
  <circle cx="45" cy="358" r="3.5" fill="#30d158" />
  <text x="96" y="359" class="node-text">CacheKeyService</text>
  <rect x="163" y="342" width="114" height="32" rx="8" class="node-pill" />
  <circle cx="175" cy="358" r="3.5" fill="#30d158" />
  <text x="226" y="359" class="node-text">ICacheKeyService</text>
  <rect x="293" y="342" width="114" height="32" rx="8" class="node-pill" />
  <circle cx="305" cy="358" r="3.5" fill="#30d158" />
  <text x="356" y="359" class="node-text">TranslationServiceType</text>
  <rect x="423" y="342" width="114" height="32" rx="8" class="node-pill" />
  <circle cx="435" cy="358" r="3.5" fill="#30d158" />
  <text x="486" y="359" class="node-text">AffiliateService</text>
  <rect x="553" y="342" width="114" height="32" rx="8" class="node-pill" />
  <circle cx="565" cy="358" r="3.5" fill="#30d158" />
  <text x="616" y="359" class="node-text">IAffiliateService</text>
  <!-- Connector Layer 2 -> 3 -->
  <line x1="350" y1="400" x2="350" y2="434" class="connector-line" />
  <polygon points="346,434 354,434 350,440" class="connector-arrow" />
  <!-- Layer 3: DATA ACCESS LAYER -->
  <rect x="25" y="440" width="650" height="100" rx="12" class="layer-bg" />
  <path d="M 25 446 L 25 534" stroke="#ff9f0a" stroke-width="5" stroke-linecap="round" />
  <text x="40" y="464" fill="#ff9f0a" class="layer-title">DATA ACCESS LAYER</text>
  <rect x="293" y="482" width="114" height="32" rx="8" class="node-pill" />
  <circle cx="305" cy="498" r="3.5" fill="#ff9f0a" />
  <text x="356" y="499" class="node-text">ORM / Data Mapper</text>
  <!-- Connector Layer 3 -> 4 -->
  <line x1="350" y1="540" x2="350" y2="574" class="connector-line" />
  <polygon points="346,574 354,574 350,580" class="connector-arrow" />
  <text x="365" y="563" class="connector-text">SQL/ORM</text>
  <!-- Layer 4: DATABASE -->
  <rect x="25" y="580" width="650" height="100" rx="12" class="layer-bg" />
  <path d="M 25 586 L 25 674" stroke="#bf5af2" stroke-width="5" stroke-linecap="round" />
  <text x="40" y="604" fill="#bf5af2" class="layer-title">DATABASE</text>
  <rect x="33" y="622" width="114" height="32" rx="8" class="node-pill" />
  <circle cx="45" cy="638" r="3.5" fill="#bf5af2" />
  <text x="96" y="639" class="node-text">LowStockProductReportLine</text>
  <rect x="163" y="622" width="114" height="32" rx="8" class="node-pill" />
  <circle cx="175" cy="638" r="3.5" fill="#bf5af2" />
  <text x="226" y="639" class="node-text">SearchTermReportLine</text>
  <rect x="293" y="622" width="114" height="32" rx="8" class="node-pill" />
  <circle cx="305" cy="638" r="3.5" fill="#bf5af2" />
  <text x="356" y="639" class="node-text">BestCustomerReportLine</text>
  <rect x="423" y="622" width="114" height="32" rx="8" class="node-pill" />
  <circle cx="435" cy="638" r="3.5" fill="#bf5af2" />
  <text x="486" y="639" class="node-text">RegisteredCustomersReportLine</text>
  <rect x="553" y="622" width="114" height="32" rx="8" class="node-pill" />
  <circle cx="565" cy="638" r="3.5" fill="#bf5af2" />
  <text x="616" y="639" class="node-text">BestsellersReportLine</text>
</svg>